<svg data-name="Layer 1" xmlns="http://www.w3.org/2000/svg" viewBox="0 0 96.34 111.44"><path d="M19.17 103.27c-21-13.89-22-35.13-15.9-49.13A39.5 39.5 0 0 1 20.2 35.09c9.56-5.45 18.16-12.28 23.31-22 9.16-17.41 33.16-17.24 44.8-.76.67.95 1.31 1.92 2 2.88 5.11 7.79 5 15.86.13 23.44-7.18 11.15-11 23.22-12.83 36.29-3.58 24.81-31.14 40.75-53.26 31.28a31.44 31.44 0 0 1-5.18-2.95z" fill="#6e7a56"/><path d="M19.17 103.27c10.27 4.33 20.77 6 31.45 1.83 16.36-6.44 24.6-19 26.36-36.14a57 57 0 0 1 10.23-27.74c5.9-8.25 6.27-16.83 3.07-26 6.87 4.62 7.86 19.8 3.16 26.09-8.21 10.98-11.22 23.62-13.49 36.91-4.77 27.92-34.82 41.29-57.59 28.07a7.16 7.16 0 0 1-3.19-3.02z" fill="#c3d2ac"/><path d="M4.1 64.64c.21-8.13 5.77-18.56 17.18-25.5a81.25 81.25 0 0 0 27.06-26C54.77 3.03 67.48.94 78.17 7.83c10.31 6.65 13.47 19.25 6.88 29-7.62 11.39-10.91 23.99-12.97 37.32-3.75 24.31-30.92 36.82-52.15 24.48C10.14 92.94 4.13 82 4.1 64.64z" fill="#bcd57a"/><path d="M59.24 68.05c0 11.82-10 22.06-21.38 22a20.71 20.71 0 0 1-20.44-20.96c.08-11.68 10.25-21.74 21.77-21.67a20.4 20.4 0 0 1 20.05 20.63z" fill="#4b4231"/></svg>